<svg version="1.2" xmlns="http://www.w3.org/2000/svg" viewBox="0 0 1920 1080" width="1919" height="1079">
	<title>Neues Projekt</title>
	<style>
		.s0 { fill: #ffffff } 
	</style>
	<path id="Mak" class="s0" aria-label="Mak"  d="m567.3 794h-87.6l-57.5-386.1-1.7-9.4-35.1-170.8h166.4l45.5 318.3h2.6l157-318.3h167.3l-171.6 180.2zm-358.7 21.5q-27.4 0-43.7-17.2-15.5-17.2-14.6-37.8 0-12.8 6.9-24.8 30-4.3 55.7-30.1 26.6-25.7 48.1-67.8 22.3-42 40.3-94.3 18-52.4 32.6-108.1 15.4-55.8 26.6-109 12-54.1 20.6-98.7l53.2 120.1q-14.6 110.7-35.2 191.4-19.7 79.8-42 133-22.3 53.2-47.2 84.9-24.9 31.8-50.6 45.5-25.8 12.9-50.7 12.9zm-35.1-317.5q-39.5 0-65.3-17.2-24.8-17.1-36.8-44.6-12.1-27.4-11.2-59.2 1.7-30.9 14.6-61.8 12.9-30.9 38.6-55.7 26.6-25.8 66.1-41.2 40.3-15.5 95.2-15.5 53.2 0 96.1 6 42.9 6.1 85.8 12.1 43.8 6 95.2 6.8l-72.9 89.3-107.2-42.1-4.3-7.7q-23.2-7.7-44.7-7.7-43.7 0-73.7 30-30.1 30-31.8 83.2-0.8 24.9 2.6 47.2 3.4 22.3 17.1 51.5-12.8 13.7-31.7 20.6-18 6-31.7 6zm653.8 433.3q-24.9 0-47.2-8.6-21.5-9.4-37.8-32.6-15.4-23.2-23.2-66.1-7.7-42.9-6-112.4 2.6-42.9 8.6-96.9 6-54.1 18-120.1 12-67 31.8-146.8l-3.5-26.6-12-93.5h168.2q-6.9 52.4-13.7 106.4-6.9 54.1-12.9 107.3-6 53.2-10.3 102.9-4.3 49.8-6 94.4-2.6 83.2 7.7 141.6 10.3 58.3 42.1 75.5-0.9 14.6-15.5 32.6-14.6 17.1-38.6 30-23.1 12.9-49.7 12.9zm220.5-120.1q-48.1 0-79.8-20.6-30.9-21.5-46.4-59.2-14.6-37.8-14.6-89.3 0-65.2 19.8-120.1 20.6-54.9 56.6-96.1 36-41.2 84.1-63.5 48-23.1 103-23.1 44.6 0 91.8 16.3l134.7-16.3-61.8 326.9q-0.9 6.8-2.6 17.1-1.7 10.3-1.7 18.9 0 16.3 9.4 30 9.5 13.8 30.9 15.5-6.8 21.4-24.9 36-17.1 13.7-40.3 20.6-22.3 6.9-43.7 6.9-28.4 0-52.4-12.1-24-12-33.4-36.8-22.3 22.3-55 36-31.7 12.9-73.7 12.9zm54-55q22.3 0 36.9-17.1 15.5-18 23.2-42.9 8.6-24.9 12-47.2l42.9-242.8q-11.2-7.7-23.2-11.2-11.1-4.3-20.6-4.3-24 0-42 21.5-18 20.6-30.9 55.8-12 35.1-19.7 76.3-6.9 40.3-10.3 79.8-2.6 39.5-2.6 69.5 0 22.3 6 42.9 6 19.7 28.3 19.7zm432.4 37.8l-171.6 17.2 78.1-398.2 152.7-14.5q26.6-33.5 66.1-46.4 39.5-12.8 78.1-12.8 58.3 0 90.1 26.6 32.6 26.6 32.6 81.5 0 38.6-16.3 69.5-16.3 30-46.4 50.6-29.1 19.7-71.2 28.3l-134.7-3.4q27.5-7.8 50.7-27.5 24-20.6 37.7-49.7 14.6-29.2 14.6-61.8 0-48.1-32.6-48.1-23.2 0-38.6 21.5-15.5 21.4-24.9 50.6-9.4 29.2-14.6 55.8zm193.9 17.1q-33.4 0-56.6-14.6-23.2-14.5-38.6-37.7-15.5-24-24-53.2-7.8-29.2-12.1-58.3-4.2-30.1-5.1-55l145-12.8 39.5 102.1q8.5 23.1 22.3 41.2 14.6 17.1 35.2 18.8-9.5 35.2-40.4 52.4-30 17.1-65.2 17.1zm-134.7-392.9l-152.7-5.2q7.7-35.2 13.7-70.3 6.9-35.2 10.3-67.8 4.3-33.5 5.2-64.4 0.8-10.3 0-20.6 0-10.3 0-19.7 22.3-12.9 45.4-18 23.2-5.2 43.8-5.2 35.2 0 57.5 18.1 23.1 17.1 22.3 58.3 0 12.9-2.6 30-2.6 16.3-6.9 36.1-3.4 18.8-9.4 39.4-5.1 20.6-12 42.9-6.9 22.3-14.6 46.4z"/>
</svg>