<svg version="1.2" xmlns="http://www.w3.org/2000/svg" viewBox="0 0 1080 1080" width="1080" height="1080">
	<title>Neues Projekt</title>
	<style>
		.s0 { fill: #000000 } 
		.s1 { fill: #ffffff } 
	</style>
	<path id="Do" class="s0" aria-label="Do"  d="m177 1035.3q-20 0-34.3-1.6-13.8-2-24.1-5.1-10.2-3.6-18.4-8.7 6.1-7.7 10.7-15.9 4.6-8.2 8.2-18.4 3.6-10.2 6.2-23l38.9-198.2q4.1-19.4 10.2-32.8 6.2-13.3 13.3-21.5l-0.5-0.5q-6.1 0.5-12.3 2.1-5.6 1.5-11.2 3.1-20.5 6.1-38.4 18.4-17.9 11.8-28.7 30.2-10.8 18.4-10.8 44.5 0 14.9 3.6 26.7 3.6 11.2 12.3 26.1-5.1 5.1-11.2 7.7-5.7 2.5-14.4 2.5-14.3 0-23.5-7.7-9.2-8.2-13.9-22-4.6-13.8-4.6-30.7 0-25.6 12.8-49.7 12.8-24 36.9-43 24.6-18.9 59.4-30.2 34.8-11.2 79.4-11.2 51.2 0 85.5 15.3 34.3 14.9 51.7 44.6 17.9 29.1 17.9 73.2 0 43.5-13.8 83.9-13.9 40.5-40 72.7-26.1 31.8-63.5 50.7-36.8 18.5-83.4 18.5zm-4.1-34.9q38.4 0 67.6-15.3 29.2-15.4 49.1-42 20-27.1 29.7-61.9 10.3-35.4 10.3-74.3 0-30.2-11.3-51.2-11.3-21.5-33.3-33.3-22-12.3-54.3-14.3-5.1 3.6-8.1 8.7-3.1 5.1-4.7 13.3l-51.7 256q-1 5.1-3 8.7-1.6 3.1-4.1 5.1 3 0.5 6.6 0.5 3.6 0 7.2 0zm302.1 33.8q-26.7 0-43-8.7-16.4-8.7-25.1-22-8.2-13.8-11.3-28.7-2.6-15.3-2.6-27.6 0-34.3 7.7-68.6 8.2-34.3 24.6-63 16.9-28.7 43.5-45.6 27.2-17.4 65.6-17.4 27.1 0 43 8.7 16.4 8.7 25.1 22.6 8.7 13.3 11.2 28.6 3.1 14.9 3.1 27.2 0 34.3-8.2 69.1-7.7 34.3-24.6 63-16.9 28.1-44 45.5-26.6 16.9-65 16.9zm10.2-30.7q16.4 0 29.2-9.7 13.3-9.7 23-26.1 9.8-16.9 15.9-37.9 6.7-21 9.7-43.5 3.1-23.1 3.1-45.1 0-25.1-9.2-41.5-8.7-16.3-32.3-16.3-16.4 0-29.7 9.7-13.3 9.7-23 26.1-9.7 16.4-16.4 37.4-6.1 21-9.2 44-3.1 23-3.1 45.1 0 25.1 9.2 41.4 9.3 16.4 32.8 16.4z"/>
	<path id="M" class="s1" aria-label="M"  d="m618.6 786h-94.7l-62.3-418.1-1.8-10.2-38.1-184.8h180.2l49.2 344.6h2.8l170-344.6h181.2l-185.8 195.1zm-388.3 23.2q-29.8 0-47.4-18.6-16.7-18.6-15.8-40.9 0-13.9 7.4-26.9 32.5-4.7 60.4-32.5 28.8-27.9 52-73.4 24.2-45.5 43.7-102.2 19.5-56.7 35.3-117.1 16.7-60.4 28.8-118 13-58.5 22.3-106.8l57.6 130.1q-15.8 119.8-38.1 207.1-21.4 86.4-45.5 144-24.2 57.6-51.1 92-27 34.4-54.8 49.2-27.9 14-54.8 14zm-38.1-343.8q-42.8 0-70.6-18.5-27-18.6-40-48.3-13-29.8-12.1-64.1 1.9-33.5 15.8-66.9 14-33.5 41.8-60.4 28.8-27.9 71.6-44.6 43.6-16.7 103.1-16.7 57.6 0 104 6.5 46.5 6.5 92.9 13 47.4 6.5 103.2 7.4l-79 96.6-116.1-45.5-4.7-8.4q-25.1-8.3-48.3-8.3-47.4 0-79.9 32.5-32.5 32.5-34.3 90.1-1 27 2.7 51.1 3.8 24.2 18.6 55.7-13.9 14.9-34.3 22.3-19.6 6.5-34.4 6.5zm707.9 469.2q-27 0-51.1-9.3-23.2-10.2-40.9-35.3-16.7-25.1-25.1-71.5-8.3-46.5-6.5-121.7 2.8-46.5 9.3-105 6.5-58.5 19.5-130.1 13-72.4 34.4-158.8l-3.7-28.8-13-101.3h182.1q-7.5 56.7-14.9 115.2-7.4 58.5-13.9 116.1-6.5 57.6-11.2 111.5-4.6 53.9-6.5 102.2-2.8 90.1 8.4 153.3 11.1 63.2 45.5 81.7-0.9 15.8-16.7 35.3-15.8 18.6-41.8 32.6-25.1 13.9-53.9 13.9z"/>
	<path id="cs" class="s0" aria-label="cs"  d="m718.9 1032.2q-43.5 0-64-25-20-25.1-20-74.8 0-32.3 8.2-64 8.7-32.3 25.6-58.9 17.4-26.6 43.5-42.5 26.1-16.4 61.5-16.4 20.5 0 35.8 6.2 15.9 6.1 24.6 17.9 8.7 11.8 8.7 29.2 0 22-12.3 32.8-11.8 10.2-26.1 10.2-5.1 0-11.3-1.5-6.1-1.6-9.7-6.2 2.6-7.2 4.6-15.9 2.1-8.7 2.1-15.3 0-13.3-6.7-20-6.7-7.2-19.5-7.2-15.8 0-28.6 10.3-12.8 10.2-22.6 27.1-9.2 16.9-15.8 36.9-6.2 20-9.2 39.9-3.1 20-3.1 35.9 0 26.1 10.2 45 10.8 19 38.4 19 24.1 0 39.4-14.4 15.4-14.8 22.1-36.8 9.2 2 13.3 9.2 4.1 6.6 4.1 15.9 0 16.3-11.8 31.2-11.8 14.3-32.8 23.5-20.5 8.7-48.6 8.7zm185.8 1.1q-14.8 0-29.7-3.1-14.3-3.6-26.1-10.2-11.7-6.7-18.9-16.4-6.7-10.3-6.7-23.1 0-14.8 7.7-22.5 7.7-8.2 17.9-11.3 10.3-3.5 18-3.5 4.6 0 8.7 1 4.6 1 7.1 4.6-2.5 6.6-5.1 12.8-2 6.1-2 13.8 0 12.8 10.2 21 10.2 7.7 27.6 7.7 19.5 0 32.8-10.8 13.3-10.7 13.3-28.1 0-13.3-6.1-23.6-6.2-10.2-16.4-18.4-9.7-8.7-21-16.9-13.8-9.7-27.1-20.5-13.3-10.7-22.6-24.6-8.7-14.3-8.7-34.3 0-18.4 9.3-32.7 9.2-14.4 24-24.1 15.4-9.7 33.8-14.3 18.4-5.2 36.9-5.2 16.4 0 32.7 4.6 16.4 4.1 27.2 14.9 10.7 10.2 10.7 28.7 0 19.4-12.3 30.2-11.7 10.7-24.5 10.7-4.6 0-10.8-1-5.6-1-9.7-4.6 3.6-7.2 5.6-13.8 2.1-7.2 2.1-14.4 0-12.8-9.8-19.4-9.2-6.7-25.6-6.7-17.9 0-30.2 9.8-12.3 9.2-12.3 26.1 0 11.2 4.7 20.4 5.1 8.7 12.8 16.4 8.1 7.7 17.9 14.9 15.3 10.7 31.2 22.5 15.9 11.3 26.6 26.1 10.8 14.9 10.8 36.9 0 25.1-15.9 43.5-15.4 17.9-39.4 27.6-24.1 9.3-48.7 9.3z"/>
</svg>